<svg width="13" height="12" viewBox="0 0 13 12" fill="none" xmlns="http://www.w3.org/2000/svg">
<path d="M7.09086 3.01864C7.09086 1.40855 5.76529 0.0983887 4.13625 0.0983887C2.50721 0.0983887 1.18164 1.40855 1.18164 3.01864C1.18164 4.62874 2.50721 5.9389 4.13625 5.9389C5.76529 5.9389 7.09086 4.62874 7.09086 3.01864Z" fill="white"/>
<path d="M0 10.0273V11.8184H8.27291V10.0273C8.27291 7.77319 6.41705 5.9389 4.13646 5.9389C1.85587 5.9389 0 7.77319 0 10.0273Z" fill="white"/>
<path d="M12.9995 11.1954C12.9995 9.58528 11.674 8.27512 10.0449 8.27512C9.73931 8.27512 9.45031 8.33443 9.17285 8.41991C9.34013 8.92974 9.454 9.46314 9.454 10.0273V11.8184H12.9995V11.1954Z" fill="white"/>
<path d="M12.4095 5.93893C12.4095 4.65052 11.3494 3.60272 10.0458 3.60272C8.74225 3.60272 7.68213 4.65052 7.68213 5.93893C7.68213 6.0133 7.69736 6.08357 7.70429 6.15612C8.28705 6.68116 8.75702 7.32194 9.05895 8.05489C9.36026 8.19285 9.6925 8.27513 10.0458 8.27513C11.3494 8.27513 12.4095 7.22734 12.4095 5.93893Z" fill="white"/>
</svg>
