<svg width="15" height="13" viewBox="0 0 15 13" fill="none" xmlns="http://www.w3.org/2000/svg">
<path d="M9.91914 7.11892C9.91914 8.45289 8.83397 9.53806 7.5 9.53806C6.16603 9.53806 5.08127 8.45289 5.08127 7.11892C5.08127 5.78496 6.16603 4.69978 7.5 4.69978C8.83397 4.69978 9.91914 5.78537 9.91914 7.11892ZM15 3.68386V10.5548C15 11.4708 14.2573 12.2135 13.3414 12.2135H1.65865C0.74266 12.2135 0 11.4708 0 10.5548V3.68386C0 2.76787 0.74266 2.02521 1.65865 2.02521H3.69879V1.45132C3.69879 0.649776 4.34815 0 5.15011 0H9.84989C10.6518 0 11.3012 0.649776 11.3012 1.45132V2.0248H13.3414C14.2573 2.02521 15 2.76787 15 3.68386ZM11.1631 7.11892C11.1631 5.0991 9.51982 3.4558 7.5 3.4558C5.48059 3.4558 3.83729 5.0991 3.83729 7.11892C3.83729 9.13875 5.48059 10.7821 7.5 10.7821C9.51982 10.7821 11.1631 9.13875 11.1631 7.11892Z" fill="#677294"/>
</svg>
