<svg width="20" height="21" viewBox="0 0 20 21" fill="none" xmlns="http://www.w3.org/2000/svg">
<path d="M3.19173 13.2196H11.2812C12.0532 11.9594 13.3164 11.0428 14.7957 10.7506V2.80659C14.7957 1.79029 13.9688 0.96344 12.9525 0.96344H11.6327V1.65562C11.6327 2.57239 10.8868 3.31828 9.97003 3.31828H4.82563C3.90886 3.31828 3.16297 2.57239 3.16297 1.65562V0.96344H1.84315C0.826849 0.96344 0 1.79029 0 2.80659V18.3765C0 19.3928 0.826849 20.2196 1.84315 20.2196H12.3333C11.1954 19.2206 10.4738 17.7419 10.4738 16.0945C10.4738 15.521 10.5615 14.968 10.7235 14.4484H3.19173C2.85242 14.4484 2.57733 14.1733 2.57733 13.834C2.57733 13.4947 2.85242 13.2196 3.19173 13.2196ZM3.19173 5.95972H11.6048C11.9442 5.95972 12.2192 6.23481 12.2192 6.57411C12.2192 6.91342 11.9442 7.18851 11.6048 7.18851H3.19173C2.85242 7.18851 2.57733 6.91342 2.57733 6.57411C2.57733 6.23481 2.85242 5.95972 3.19173 5.95972ZM3.19173 8.37966H11.6048C11.9442 8.37966 12.2192 8.65474 12.2192 8.99405C12.2192 9.33336 11.9442 9.60845 11.6048 9.60845H3.19173C2.85242 9.60845 2.57733 9.33336 2.57733 8.99405C2.57733 8.65474 2.85242 8.37966 3.19173 8.37966ZM3.19173 10.7997H11.6048C11.9442 10.7997 12.2192 11.0748 12.2192 11.4141C12.2192 11.7534 11.9442 12.0285 11.6048 12.0285H3.19173C2.85242 12.0285 2.57733 11.7534 2.57733 11.4141C2.57733 11.0748 2.85242 10.7997 3.19173 10.7997Z" fill="white"/>
<path d="M15.8143 11.88C13.5477 11.88 11.7036 13.7707 11.7036 16.0947C11.7036 18.4186 13.5477 20.3093 15.8143 20.3093C18.081 20.3093 19.9251 18.4186 19.9251 16.0947C19.9251 13.7707 18.081 11.88 15.8143 11.88ZM17.5347 18.398C17.4244 18.4804 17.2954 18.5202 17.1676 18.5202C16.9803 18.5202 16.7955 18.4349 16.6748 18.2734L15.3221 16.4623C15.2428 16.3561 15.2 16.2272 15.2 16.0947V14.7829C15.2 14.4435 15.4751 14.1685 15.8144 14.1685C16.1537 14.1685 16.4287 14.4435 16.4287 14.7828V15.8905L17.6593 17.5381C17.8623 17.81 17.8065 18.195 17.5347 18.398Z" fill="white"/>
<path d="M9.96942 0H4.82503C4.58576 0 4.39111 0.194644 4.39111 0.433912V1.65572C4.39111 1.89499 4.58576 2.08963 4.82503 2.08963H9.96942C10.2087 2.08963 10.4033 1.89499 10.4033 1.65572V0.433912C10.4033 0.194644 10.2086 0 9.96942 0Z" fill="white"/>
</svg>
