<svg width="22" height="19" viewBox="0 0 22 19" fill="none" xmlns="http://www.w3.org/2000/svg">
<path d="M15.5797 0C14.4285 0 13.3731 0.362713 12.4428 1.07809C11.5509 1.76392 10.9571 2.63745 10.6075 3.27265C10.2579 2.63741 9.66406 1.76392 8.77217 1.07809C7.84186 0.362713 6.78642 0 5.63522 0C2.42265 0 0 2.61269 0 6.07738C0 9.82044 3.02242 12.3814 7.59797 16.2583C8.37497 16.9167 9.25568 17.663 10.1711 18.4589C10.2917 18.5639 10.4467 18.6218 10.6075 18.6218C10.7682 18.6218 10.9232 18.5639 11.0439 18.4589C11.9593 17.6629 12.84 16.9167 13.6175 16.2579C18.1925 12.3814 21.2149 9.82044 21.2149 6.07738C21.2149 2.61269 18.7923 0 15.5797 0Z" fill="white"/>
</svg>
