<svg width="18" height="24" viewBox="0 0 18 24" fill="none" xmlns="http://www.w3.org/2000/svg">
<path d="M18 2.96879C18 1.51308 16.8203 0.333374 15.3646 0.333374H3.38542C1.92971 0.333374 0.75 1.51308 0.75 2.96879V20.698C0.75 22.1537 1.92971 23.3334 3.38542 23.3334H15.3646C16.8203 23.3334 18 22.1537 18 20.698V2.96879ZM6.385 9.19796H5.65667C4.53637 9.19796 3.625 8.28658 3.625 7.16629C3.625 6.15908 4.35142 5.33012 5.30208 5.16146V4.40629C5.30208 4.00954 5.62408 3.68754 6.02083 3.68754C6.41758 3.68754 6.73958 4.00954 6.73958 4.40629V5.12504H7.69792C8.09467 5.12504 8.41667 5.44704 8.41667 5.84379C8.41667 6.24054 8.09467 6.56254 7.69792 6.56254H5.65667C5.32892 6.56254 5.0625 6.82896 5.0625 7.15671C5.0625 7.49404 5.32892 7.76046 5.65667 7.76046H6.385C7.50529 7.76046 8.41667 8.67183 8.41667 9.79212C8.41667 10.7993 7.69025 11.6283 6.73958 11.797V12.5512C6.73958 12.9479 6.41758 13.2699 6.02083 13.2699C5.62408 13.2699 5.30208 12.9479 5.30208 12.5512V11.8334H4.34375C3.947 11.8334 3.625 11.5114 3.625 11.1146C3.625 10.7179 3.947 10.3959 4.34375 10.3959H6.385C6.71275 10.3959 6.97917 10.1295 6.97917 9.80171C6.97917 9.46437 6.71275 9.19796 6.385 9.19796ZM14.4062 20.4584H4.34375C3.947 20.4584 3.625 20.1364 3.625 19.7396C3.625 19.3429 3.947 19.0209 4.34375 19.0209H14.4062C14.803 19.0209 15.125 19.3429 15.125 19.7396C15.125 20.1364 14.803 20.4584 14.4062 20.4584ZM14.4062 16.625H4.34375C3.947 16.625 3.625 16.303 3.625 15.9063C3.625 15.5095 3.947 15.1875 4.34375 15.1875H14.4062C14.803 15.1875 15.125 15.5095 15.125 15.9063C15.125 16.303 14.803 16.625 14.4062 16.625ZM14.4062 12.7917H11.0521C10.6553 12.7917 10.3333 12.4697 10.3333 12.073C10.3333 11.6762 10.6553 11.3542 11.0521 11.3542H14.4062C14.803 11.3542 15.125 11.6762 15.125 12.073C15.125 12.4697 14.803 12.7917 14.4062 12.7917ZM14.4062 8.95837H11.0521C10.6553 8.95837 10.3333 8.63637 10.3333 8.23962C10.3333 7.84287 10.6553 7.52087 11.0521 7.52087H14.4062C14.803 7.52087 15.125 7.84287 15.125 8.23962C15.125 8.63637 14.803 8.95837 14.4062 8.95837Z" fill="#677294"/>
</svg>
