<svg width="15" height="15" viewBox="0 0 15 15" fill="none" xmlns="http://www.w3.org/2000/svg">
<path d="M13.3043 0H1.69654C0.760873 0 0 0.760623 0 1.69739V12.3656C0 13.3013 0.760873 14.0611 1.69654 14.0611H13.3043C14.2399 14.0611 15 13.3013 15 12.3656V1.69739C15 0.760623 14.24 0 13.3043 0ZM9.69979 2.52435C10.6046 2.52435 11.3384 3.2582 11.3384 4.16299C11.3384 5.06777 10.6046 5.80163 9.69979 5.80163C8.79471 5.80163 8.06115 5.06777 8.06115 4.16299C8.06115 3.2582 8.79471 2.52435 9.69979 2.52435ZM12.7723 12.4929H7.49987H2.46238C2.00981 12.4929 1.80826 12.1654 2.01228 11.7615L4.82449 6.19138C5.02825 5.78747 5.4166 5.75142 5.69161 6.11079L8.51939 9.80625C8.79441 10.1657 9.27509 10.1962 9.59324 9.87423L10.285 9.17372C10.6029 8.8517 11.0713 8.89157 11.3308 9.26219L13.1221 11.821C13.381 12.1922 13.2248 12.4929 12.7723 12.4929Z" fill="#677294"/>
</svg>
