<svg width="16" height="20" viewBox="0 0 16 20" fill="none" xmlns="http://www.w3.org/2000/svg">
<path d="M4.18108 8.83804C5.08953 10.8429 7.03446 11.7155 7.99983 11.7155C8.63457 11.7155 9.69282 11.3379 10.6015 10.5096C10.2692 10.5328 9.91414 10.5446 9.53467 10.5446C9.44563 10.5446 9.35222 10.5438 9.25239 10.5422C9.0611 10.6895 8.82415 10.7726 8.57825 10.7726H7.76973C7.16042 10.7726 6.66475 10.2769 6.66475 9.66759C6.66475 9.05828 7.16042 8.56261 7.76973 8.56261H8.57825C8.87034 8.56261 9.14351 8.67645 9.34613 8.87281C9.41345 8.87356 9.4798 8.87389 9.54491 8.87389C10.5887 8.87389 11.2765 8.77816 11.7265 8.6627C11.6681 8.52067 11.6363 8.36527 11.6363 8.20303V5.4014C11.6363 5.10995 11.7445 4.83058 11.9315 4.61476C11.8317 3.83777 11.6505 3.24459 11.3802 2.80701C10.823 1.9053 9.74888 1.48535 7.99983 1.48535C6.54886 1.48535 5.54688 1.78655 4.93672 2.40615C4.46374 2.88647 4.18965 3.57182 4.06152 4.60689C4.25277 4.82352 4.36337 5.10575 4.36337 5.4014V8.20303C4.36343 8.43616 4.29643 8.6537 4.18108 8.83804Z" fill="white"/>
<path d="M2.19273 8.86447H3.16263C3.52776 8.86447 3.824 8.56833 3.824 8.20304V5.40141C3.824 5.15734 3.69146 4.9447 3.49482 4.83011C3.7114 2.53601 4.59668 0.946293 7.99947 0.946293C9.95356 0.946293 11.1734 1.44758 11.8383 2.52372C12.2252 3.14995 12.4114 3.95879 12.4983 4.83356C12.3048 4.94896 12.1749 5.15971 12.1749 5.40135V8.20299C12.1749 8.51793 12.3952 8.78092 12.69 8.84759C12.2625 9.12724 11.3773 9.41286 9.54451 9.41286C9.39606 9.41286 9.24131 9.41097 9.08014 9.40709C8.98582 9.22571 8.79651 9.10158 8.57789 9.10158H7.76942C7.4569 9.10158 7.20346 9.35497 7.20346 9.66754C7.20346 9.98012 7.4569 10.2335 7.76942 10.2335H8.57789C8.76676 10.2335 8.93364 10.1406 9.03638 9.9985C9.2066 10.0028 9.37326 10.0055 9.53432 10.0055C11.6003 10.0055 12.9136 9.65283 13.4455 8.95319C13.4681 8.92343 13.4887 8.89379 13.5076 8.86447H13.8063C14.1715 8.86447 14.4677 8.56833 14.4677 8.20304V5.40141C14.4677 5.03617 14.1716 4.74004 13.8063 4.74004H13.4415C13.3389 3.68314 13.1114 2.78342 12.6434 2.02621C11.801 0.662772 10.2819 0 7.99942 0C5.7168 0 4.19781 0.662772 3.35538 2.02626C2.88746 2.78347 2.66005 3.68308 2.55737 4.74009H2.19267C1.82738 4.74009 1.53125 5.03617 1.53125 5.40146V8.2031C1.53125 8.56833 1.82744 8.86447 2.19273 8.86447Z" fill="white"/>
<path d="M15.9962 17.1028C15.7763 15.7355 15.3235 13.9742 14.4156 13.3484C13.7965 12.9215 11.635 11.7667 10.7121 11.2736L10.6926 11.2632C10.587 11.2068 10.4581 11.2181 10.364 11.292C9.87976 11.6721 9.34969 11.9281 8.78852 12.053C8.68935 12.075 8.6079 12.1456 8.57184 12.2406L8 13.7477L7.42816 12.2406C7.3921 12.1455 7.31066 12.075 7.21148 12.053C6.65031 11.9281 6.12013 11.6721 5.63588 11.292C5.54177 11.218 5.41284 11.2067 5.30725 11.2632C4.39459 11.7508 2.20517 12.9299 1.58703 13.3466C0.541392 14.0511 0.084739 16.5992 0.003833 17.1029C-0.00419832 17.1529 0.000437207 17.204 0.0173084 17.2516C0.0547159 17.3573 1.01384 19.838 7.99995 19.838C14.9859 19.838 15.9452 17.3573 15.9826 17.2517C15.9996 17.2039 16.0042 17.1528 15.9962 17.1028ZM12.7433 15.5327H9.97635V14.95H12.7433V15.5327Z" fill="white"/>
</svg>
