<svg width="18" height="23" viewBox="0 0 18 23" fill="none" xmlns="http://www.w3.org/2000/svg">
<path d="M9.6709 10.171C9.6709 9.37833 9.02609 8.73352 8.2334 8.73352H6.7959V11.6085H8.2334C9.02609 11.6085 9.6709 10.9637 9.6709 10.171Z" fill="#0EBE7F"/>
<path d="M17.859 4.93148L13.0685 0.140965C12.9818 0.0539512 12.8619 0 12.7292 0H2.66668C1.60958 0 0.75 0.85958 0.75 1.91668V21.0834C0.75 22.1404 1.60958 23 2.66668 23H16.0834C17.1404 23 18 22.1404 18 21.0833V5.27082C18 5.13812 17.946 5.01822 17.859 4.93148ZM13.119 18.4091C13.2729 18.6243 13.2229 18.9238 13.0076 19.0773C12.9234 19.1377 12.826 19.1667 12.7296 19.1667C12.5799 19.1667 12.433 19.097 12.3393 18.9659L10.8996 16.9502L9.27015 18.987C9.17514 19.1049 9.0362 19.1667 8.89532 19.1667C8.79052 19.1667 8.68473 19.1325 8.59632 19.0619C8.38995 18.8962 8.35626 18.5949 8.52144 18.388L10.3204 16.1394L7.69106 12.4584H6.5V14.8542C6.5 15.119 6.28568 15.3334 6.02082 15.3334C5.75596 15.3334 5.54164 15.119 5.54164 14.8542V8.14582C5.54164 7.88096 5.75596 7.66664 6.02082 7.66664H7.9375C9.25847 7.66664 10.3333 8.74148 10.3333 10.0625C10.3333 11.0939 9.6744 11.9673 8.75831 12.3041L10.9424 15.3618L12.3548 13.5963C12.5209 13.3904 12.8218 13.3567 13.0286 13.5214C13.235 13.6871 13.2687 13.9884 13.1035 14.1952L11.5216 16.1727L13.119 18.4091ZM14.1667 4.79168C13.6384 4.79168 13.2084 4.36164 13.2084 3.83336V1.63592L16.3641 4.79168H14.1667Z" fill="#0EBE7F"/>
</svg>
