<svg width="18" height="18" viewBox="0 0 18 18" fill="none" xmlns="http://www.w3.org/2000/svg">
<path d="M17.7859 16.7513L13.5908 12.5562C13.305 12.2703 12.842 12.2703 12.5562 12.5562C12.2703 12.8418 12.2703 13.3052 12.5562 13.5908L16.7513 17.786C16.8942 17.9289 17.0813 18.0004 17.2686 18.0004C17.4557 18.0004 17.643 17.9289 17.7859 17.786C18.0718 17.5004 18.0718 17.0369 17.7859 16.7513Z" fill="#677294"/>
<path d="M7.92678 0C3.55607 0 0 3.55611 0 7.92686C0 12.2979 3.55607 15.8537 7.92678 15.8537C12.2977 15.8537 15.8536 12.2979 15.8536 7.92686C15.8536 3.55611 12.2977 0 7.92678 0ZM7.92678 14.3903C4.3629 14.3903 1.46341 11.4908 1.46341 7.92689C1.46341 4.36298 4.3629 1.46342 7.92678 1.46342C11.4907 1.46342 14.3901 4.36295 14.3901 7.92686C14.3901 11.4908 11.4907 14.3903 7.92678 14.3903Z" fill="#677294"/>
</svg>
