<svg width="15" height="15" viewBox="0 0 15 15" fill="none" xmlns="http://www.w3.org/2000/svg">
<path d="M8.4082 0C8.1653 0 7.96875 0.196553 7.96875 0.439453V6.62109C7.96875 6.86399 8.1653 7.06055 8.4082 7.06055H14.5605C14.8034 7.06055 15 6.86399 15 6.62109C15 2.98617 12.0431 0 8.4082 0Z" fill="white"/>
<path d="M9.2223 14.0147L7.08984 8.29907V2.22656C7.08984 1.98366 6.89329 1.78711 6.65039 1.78711C3.01547 1.78711 0 4.74398 0 8.37891C0 12.0138 3.01547 15 6.65039 15C7.44604 15 8.22495 14.8588 8.96525 14.5807C9.19228 14.4953 9.30729 14.2421 9.2223 14.0147Z" fill="white"/>
<path d="M14.5606 7.93945H8.40829C8.26409 7.93945 8.12935 8.01026 8.04694 8.12871C7.96497 8.24716 7.9461 8.39821 7.99673 8.53339L10.1571 14.3237C10.1983 14.4327 10.2807 14.5211 10.3871 14.5691C10.4936 14.6176 10.6136 14.6217 10.7236 14.5803C13.2813 13.6177 15.0001 11.1083 15.0001 8.37891C15.0001 8.13601 14.8035 7.93945 14.5606 7.93945Z" fill="white"/>
</svg>
